<?xml version="1.0" encoding="UTF-8" standalone="no"?>
<svg
   width="1280"
   height="720"
   viewBox="0 0 1280 720"
   version="1.1"
   id="svg26"
   sodipodi:docname="esx_splash_dark.svg"
   inkscape:export-filename="../.emulationstation/resources/splash.svg"
   inkscape:export-xdpi="96"
   inkscape:export-ydpi="96"
   xmlns:inkscape="http://www.inkscape.org/namespaces/inkscape"
   xmlns:sodipodi="http://sodipodi.sourceforge.net/DTD/sodipodi-0.dtd"
   xmlns="http://www.w3.org/2000/svg"
   xmlns:svg="http://www.w3.org/2000/svg">
  <sodipodi:namedview
     id="namedview56"
     pagecolor="#ffffff"
     bordercolor="#000000"
     borderopacity="0.25"
     inkscape:showpageshadow="2"
     inkscape:pageopacity="0.0"
     inkscape:pagecheckerboard="true"
     inkscape:deskcolor="#d1d1d1"
     showgrid="false" />
  <defs
     id="defs30" />
  <g
     id="g24"
     transform="matrix(1,0,0,1.4173687,-71.833472,-68.121071)">
    <g
       transform="matrix(0.69016152,0,0,0.69016152,163.58716,785.81395)"
       id="g16">
      <g
         id="g897-8-7"
         transform="matrix(1.6079754,0,0,1.6079754,-72.260271,-1227.8696)">
        <path
           d="M 431.529,442.097 Z"
           id="path3-3-5"
           style="fill:#000000" />
        <path
           d="M 431.529,359.216 Z"
           id="path5-1-3"
           style="fill:#000000" />
        <path
           d="M 431.529,276.306 Z"
           id="path7-8-5"
           style="fill:#000000" />
        <path
           d="M 431.529,317.753 Z"
           id="path9-9-6"
           style="fill:#000000" />
        <path
           d="M 431.529,483.544 Z"
           id="path11-6-2"
           style="fill:#000000" />
        <path
           d="M 431.529,400.642 Z"
           id="path13-4-9"
           style="fill:#000000" />
        <path
           d="M 431.529,234.842 Z"
           id="path15-3-1"
           style="fill:#000000" />
        <path
           d="m 428.95632,178.68898 c 0,-6.11 -4.87281,-11.108 -10.82467,-11.108 H 76.12773 c -5.957709,0 -14.274329,3.534 -18.484301,7.855 l -25.095097,25.745 c -4.212896,4.321 -7.656709,12.853 -7.656709,18.963 v 226.468 c 0,6.111 4.872806,11.109 10.825642,11.109 H 377.72021 c 5.95284,0 14.27433,-3.535 18.4843,-7.854 l 25.0912,-25.736 c 4.21095,-4.316 7.65573,-12.853 7.65573,-18.965 z"
           id="path22-3-2"
           style="fill:#666666;fill-opacity:1;stroke-width:0.987297" />
        <path
           enable-background="new    "
           d="m 389.89,317.80338 -25.729,-25.729 c -4.319,-4.318 -12.854,-7.854 -18.963,-7.853 H 325.95 c -6.112,10e-4 -11.11,10e-4 -11.11,10e-4 0,0 3.532,-3.534 7.854,-7.855 l 67.196,-67.193 c 4.32,-4.321 2.854,-7.855 -3.253,-7.855 H 284.502 c -6.111,0 -14.643,3.534 -18.963,7.855 l -232.726999,232.7 c -1.825,1.821 -3.517,3.514 -4.871,4.866 2.012,2.011 4.786,3.259 7.836,3.259 0.005,0 0.01,0 0.016,0 H 135.746 303.734 c 6.111,0 11.122,-0.013 11.133,-0.023 0.015,-0.016 3.559,-3.562 7.88,-7.88 l 67.144,-67.132 c 4.32,-4.316 7.854,-12.853 7.854,-18.963 v -19.235 c -0.002,-6.112 -3.535,-14.648 -7.855,-18.963 z"
           id="path24-3-7"
           style="opacity:0.25;fill:#000000;fill-opacity:1" />
        <path
           d="m 276.824,332.63097 c -6.108,0 -14.643,-3.536 -18.96,-7.857 l -25.71,-25.718 c -4.321,-4.321 -7.857,-12.855 -7.865,-18.966 l -0.012,-19.246 c -0.008,-6.11 3.525,-14.643 7.846,-18.964 l 25.741,-25.737 c 4.321,-4.321 12.852,-7.855 18.963,-7.855 h 102.14 c 6.107,0 7.573,3.534 3.253,7.855 l -25.741,25.737 c -4.32,4.321 -12.852,7.855 -18.963,7.855 h -60.688 c -6.112,0 -11.11,4.998 -11.11,11.108 v 19.246 c 0,6.11 4.998,11.108 11.106,11.106 l 60.702,-0.007 c 6.107,-0.002 14.644,3.533 18.963,7.853 l 25.729,25.729 c 4.32,4.314 7.854,12.851 7.854,18.963 v 19.235 c 0,6.109 -3.532,14.646 -7.854,18.963 l -25.74,25.74 c -4.321,4.316 -12.853,7.854 -18.964,7.854 h -60.688 c -6.112,0 -14.643,-3.536 -18.963,-7.854 l -25.741,-25.74 c -4.32,-4.316 -2.858,-7.854 3.253,-7.854 h 102.14 c 6.112,0 11.11,-4.998 11.11,-11.108 v -19.237 c 0,-6.112 0,-11.11 0.003,-11.11 0.004,0 -4.994,0 -11.103,0 z"
           id="path31-8-0"
           style="fill:#ffffff;fill-opacity:1" />
        <g
           id="g35-6-9"
           style="opacity:0.25;fill:#000000;fill-opacity:1">
          <path
             style="fill:#000000;fill-opacity:1"
             d="m 19.624077,295.01074 c 0,-6.109 0,-11.238 0,-11.393 0,-0.155 3.532,-3.818 7.854,-8.138 l 67.185003,-67.186 c 4.321,-4.321 12.855,-7.855 18.963,-7.855 h 102.15 c 6.108,0 7.574,3.534 3.253,7.855 l -67.197,67.182 c -4.32,4.321 -7.853,7.855 -7.853,7.855 0,0 4.998,0.002 11.11,0.006 l 19.228,0.007 c 6.108,0.004 10.75,4.993 10.318,11.086 l -1.114,15.593 c -0.433,6.092 -1.707,11.997 -2.833,13.122 -1.125,1.125 -5.576,5.58 -9.896,9.896 l -25.201,25.201 c -4.32,4.315 -7.885,7.885 -7.922,7.918 -0.034,0.034 4.933,0.064 11.041,0.062 h 17.979 c 6.108,-0.004 14.784,3.379 19.281,7.519 l 26.836,24.694 c 4.497,4.137 8.181,7.623 8.058,7.75 -0.126,0.126 -3.766,3.762 -8.087,8.083 l -34.827,34.85 -147.212003,0.002 c -6.107,0 -11.105,-4.998 -11.105,-11.11 z"
             id="path33-0-3" />
        </g>
        <path
           d="m 113.62608,371.4629 c -6.107,0 -11.104,-4.998 -11.104,-11.108 v -19.235 c 0,-6.112 4.998,-11.11 11.104,-11.11 h 60.69 c 6.108,0 11.106,-4.998 11.106,-11.108 v -19.206 c 0,-6.112 -4.998,-11.11 -11.106,-11.11 h -60.69 c -6.107,0 -11.104,-4.998 -11.104,-11.108 v -19.246 c 0,-6.11 4.998,-11.108 11.104,-11.108 h 60.69 c 6.108,0 14.643,-3.534 18.964,-7.854 l 25.749,-25.741 c 4.321,-4.319 2.855,-7.853 -3.253,-7.853 h -102.15 c -6.107,0 -14.643002,3.534 -18.963002,7.855 l -25.737,25.735 c -4.32,4.321 -7.857,12.854 -7.857,18.964 v 102.125 c 0,6.11 3.537,14.646 7.857,18.963 l 25.737,25.74 c 4.321,4.316 12.855002,7.854 18.963002,7.854 h 102.143 c 6.112,0 7.574,-3.536 3.253,-7.855 l -25.741,-25.744 c -4.32,-4.321 -12.854,-7.857 -18.964,-7.857 z"
           id="path42-4-6"
           style="fill:#ffffff;fill-opacity:1" />
      </g>
    </g>
    <g
       aria-label="ES-X"
       id="text18"
       style="font-weight:700;font-size:180px;font-family:'DejaVu Sans';fill:#ffffff">
      <path
         d="m 616.52344,128.7793 h 91.31836 v 25.57617 h -57.48047 v 24.43359 h 54.05273 v 25.57617 h -54.05273 v 30.0586 h 59.41406 V 260 h -93.25195 z"
         id="path32" />
      <path
         d="m 830.80078,132.91016 v 27.77343 q -10.81055,-4.83398 -21.09375,-7.29492 -10.2832,-2.46094 -19.42383,-2.46094 -12.1289,0 -17.92968,3.33985 -5.80079,3.33984 -5.80079,10.37109 0,5.27344 3.86719,8.26172 3.95508,2.90039 14.23828,5.00977 l 14.41407,2.90039 q 21.88476,4.39453 31.11328,13.35937 9.22851,8.96485 9.22851,25.48828 0,21.70899 -12.91992,32.34375 -12.83203,10.54688 -39.28711,10.54688 -12.48047,0 -25.04883,-2.37305 -12.56836,-2.37305 -25.13672,-7.03125 v -28.56445 q 12.56836,6.67969 24.25782,10.10742 11.77734,3.33984 22.67578,3.33984 11.07422,0 16.96289,-3.6914 5.88867,-3.69141 5.88867,-10.54688 0,-6.15234 -4.04297,-9.49219 -3.95508,-3.33984 -15.9082,-5.97656 l -13.0957,-2.90039 q -19.6875,-4.21875 -28.82813,-13.44726 -9.05273,-9.22852 -9.05273,-24.87305 0,-19.59961 12.65625,-30.14649 12.65625,-10.54687 36.38671,-10.54687 10.81055,0 22.23633,1.66992 11.42578,1.58203 23.64258,4.83399 z"
         id="path34" />
      <path
         d="m 862.35352,195.40039 h 55.19531 v 25.57617 h -55.19531 z"
         id="path36" />
      <path
         d="M 1002.2754,193.02734 1047.8027,260 h -35.2441 L 981.88477,215.17578 951.47461,260 H 916.05469 L 961.58203,193.02734 917.8125,128.7793 h 35.33203 l 28.74024,42.27539 28.65233,-42.27539 h 35.5078 z"
         id="path38" />
    </g>
    <g
       aria-label="emulation station - X"
       id="text20"
       style="font-size:58px;font-family:'DejaVu Sans';fill:#ffffff">
      <path
         d="m 632.59668,332.83789 v 2.54883 H 608.6377 q 0.33984,5.38086 3.22851,8.21289 2.91699,2.80371 8.09961,2.80371 3.00195,0 5.80566,-0.73633 2.83204,-0.73633 5.60743,-2.20898 v 4.92773 q -2.80371,1.18946 -5.74903,1.8125 -2.94531,0.62305 -5.97558,0.62305 -7.58985,0 -12.03614,-4.41797 -4.41796,-4.41797 -4.41796,-11.95117 0,-7.78809 4.1914,-12.34766 4.21973,-4.58789 11.35645,-4.58789 6.40039,0 10.11035,4.13477 3.73828,4.10644 3.73828,11.18652 z m -5.21094,-1.5293 q -0.0566,-4.27636 -2.40722,-6.82519 -2.32227,-2.54883 -6.17383,-2.54883 -4.36133,0 -6.99512,2.46387 -2.60547,2.46386 -3.00195,6.93847 z"
         id="path41" />
      <path
         d="m 665.84473,324.37012 q 1.9541,-3.51172 4.67285,-5.18262 2.71875,-1.6709 6.40039,-1.6709 4.95605,0 7.64648,3.4834 2.69043,3.45508 2.69043,9.85547 V 350 h -5.23926 v -18.97461 q 0,-4.55957 -1.61425,-6.76855 -1.61426,-2.20899 -4.92774,-2.20899 -4.0498,0 -6.40039,2.69043 -2.35058,2.69043 -2.35058,7.33496 V 350 h -5.23926 v -18.97461 q 0,-4.58789 -1.61426,-6.76855 -1.61426,-2.20899 -4.98437,-2.20899 -3.99317,0 -6.34375,2.71875 -2.35059,2.69043 -2.35059,7.30664 V 350 h -5.23926 v -31.71875 h 5.23926 v 4.92773 q 1.78418,-2.91699 4.27637,-4.30468 2.49218,-1.3877 5.91894,-1.3877 3.45508,0 5.86231,1.75586 2.43554,1.75586 3.59668,5.09766 z"
         id="path43" />
      <path
         d="m 697.11035,337.48242 v -19.20117 h 5.21094 v 19.00293 q 0,4.50293 1.75586,6.76855 1.75586,2.23731 5.26758,2.23731 4.21972,0 6.65527,-2.69043 2.46387,-2.69043 2.46387,-7.33496 v -17.9834 h 5.21093 V 350 h -5.21093 v -4.87109 q -1.89746,2.88867 -4.41797,4.30468 -2.49219,1.3877 -5.80567,1.3877 -5.46582,0 -8.29785,-3.39844 -2.83203,-3.39844 -2.83203,-9.94043 z m 13.11231,-19.96582 z"
         id="path45" />
      <path
         d="m 734.4082,305.93359 h 5.21094 V 350 h -5.21094 z"
         id="path47" />
      <path
         d="m 764.9375,334.05566 q -6.31543,0 -8.75098,1.44434 -2.43554,1.44434 -2.43554,4.92773 0,2.77539 1.8125,4.41797 1.84082,1.61426 4.98437,1.61426 4.33301,0 6.93848,-3.05859 2.63379,-3.08692 2.63379,-8.18457 v -1.16114 z m 10.39355,-2.15234 V 350 h -5.21093 v -4.81445 q -1.78418,2.88867 -4.44629,4.27636 -2.66211,1.35938 -6.51367,1.35938 -4.8711,0 -7.75977,-2.71875 -2.86035,-2.74707 -2.86035,-7.33496 0,-5.35254 3.56836,-8.07129 3.59668,-2.71875 10.70508,-2.71875 h 7.30664 v -0.50977 q 0,-3.59668 -2.37891,-5.55078 -2.35059,-1.98242 -6.62695,-1.98242 -2.71875,0 -5.2959,0.65137 -2.57715,0.65136 -4.95606,1.9541 v -4.81445 q 2.86036,-1.1045 5.55079,-1.64258 2.69043,-0.56641 5.23925,-0.56641 6.88184,0 10.28028,3.56836 3.39843,3.56836 3.39843,10.81836 z"
         id="path49" />
      <path
         d="m 791.21875,309.27539 v 9.00586 h 10.7334 v 4.0498 h -10.7334 v 17.21875 q 0,3.87989 1.04785,4.98438 1.07617,1.10449 4.33301,1.10449 h 5.35254 V 350 h -5.35254 q -6.03223,0 -8.32617,-2.2373 -2.29395,-2.26563 -2.29395,-8.2129 v -17.21875 h -3.82324 v -4.0498 h 3.82324 v -9.00586 z"
         id="path51" />
      <path
         d="m 808.80566,318.28125 h 5.21094 V 350 h -5.21094 z m 0,-12.34766 h 5.21094 v 6.59864 h -5.21094 z"
         id="path53" />
      <path
         d="m 837.21094,321.93457 q -4.19141,0 -6.62696,3.28516 -2.43554,3.25683 -2.43554,8.94922 0,5.69238 2.40722,8.97753 2.43555,3.25684 6.65528,3.25684 4.16308,0 6.59863,-3.28516 2.43555,-3.28515 2.43555,-8.94921 0,-5.63575 -2.43555,-8.9209 -2.43555,-3.31348 -6.59863,-3.31348 z m 0,-4.41797 q 6.79687,0 10.67676,4.41797 3.87988,4.41797 3.87988,12.23438 0,7.78808 -3.87988,12.23437 -3.87989,4.41797 -10.67676,4.41797 -6.8252,0 -10.70508,-4.41797 -3.85156,-4.44629 -3.85156,-12.23437 0,-7.81641 3.85156,-12.23438 3.87988,-4.41797 10.70508,-4.41797 z"
         id="path55" />
      <path
         d="M 886.77148,330.85547 V 350 h -5.21093 v -18.97461 q 0,-4.50293 -1.75586,-6.74023 -1.75586,-2.23731 -5.26758,-2.23731 -4.21973,0 -6.65527,2.69043 -2.43555,2.69043 -2.43555,7.33496 V 350 h -5.23926 v -31.71875 h 5.23926 v 4.92773 q 1.86914,-2.86035 4.38965,-4.27636 2.54883,-1.41602 5.8623,-1.41602 5.46582,0 8.26953,3.39844 2.80371,3.37012 2.80371,9.94043 z"
         id="path57" />
      <path
         d="m 935.82227,319.21582 v 4.92773 q -2.20899,-1.13281 -4.5879,-1.69921 -2.3789,-0.56641 -4.92773,-0.56641 -3.87988,0 -5.83398,1.18945 -1.92579,1.18946 -1.92579,3.56836 0,1.8125 1.3877,2.86035 1.3877,1.01953 5.5791,1.95411 l 1.78418,0.39648 q 5.55078,1.18945 7.87305,3.37012 2.35058,2.15234 2.35058,6.03222 0,4.41797 -3.51171,6.99512 -3.4834,2.57715 -9.60059,2.57715 -2.54883,0 -5.32422,-0.50977 -2.74707,-0.48144 -5.80566,-1.47265 v -5.38086 q 2.88867,1.50097 5.69238,2.26562 2.80371,0.73633 5.55078,0.73633 3.68164,0 5.66406,-1.24609 1.98243,-1.27442 1.98243,-3.56836 0,-2.12403 -1.44434,-3.25684 -1.41602,-1.13281 -6.25879,-2.18066 l -1.8125,-0.42481 q -4.84277,-1.01953 -6.99512,-3.11523 -2.15234,-2.12402 -2.15234,-5.80567 0,-4.4746 3.17187,-6.91015 3.17188,-2.43555 9.00586,-2.43555 2.88868,0 5.4375,0.42481 2.54883,0.4248 4.70118,1.27441 z"
         id="path59" />
      <path
         d="m 950.97363,309.27539 v 9.00586 h 10.7334 v 4.0498 h -10.7334 v 17.21875 q 0,3.87989 1.04785,4.98438 1.07618,1.10449 4.33301,1.10449 h 5.35254 V 350 h -5.35254 q -6.03222,0 -8.32617,-2.2373 -2.29395,-2.26563 -2.29395,-8.2129 v -17.21875 h -3.82324 v -4.0498 h 3.82324 v -9.00586 z"
         id="path61" />
      <path
         d="m 982.97559,334.05566 q -6.31543,0 -8.75098,1.44434 -2.43555,1.44434 -2.43555,4.92773 0,2.77539 1.8125,4.41797 1.84082,1.61426 4.98438,1.61426 4.33301,0 6.93847,-3.05859 2.63379,-3.08692 2.63379,-8.18457 v -1.16114 z m 10.39355,-2.15234 V 350 h -5.21094 v -4.81445 q -1.78418,2.88867 -4.44629,4.27636 -2.66211,1.35938 -6.51367,1.35938 -4.87109,0 -7.75976,-2.71875 -2.86036,-2.74707 -2.86036,-7.33496 0,-5.35254 3.56836,-8.07129 3.59668,-2.71875 10.70508,-2.71875 h 7.30664 v -0.50977 q 0,-3.59668 -2.3789,-5.55078 -2.35059,-1.98242 -6.62696,-1.98242 -2.71875,0 -5.29589,0.65137 -2.57715,0.65136 -4.95606,1.9541 v -4.81445 q 2.86035,-1.1045 5.55078,-1.64258 2.69043,-0.56641 5.23926,-0.56641 6.88184,0 10.28027,3.56836 3.39844,3.56836 3.39844,10.81836 z"
         id="path63" />
      <path
         d="m 1009.2568,309.27539 v 9.00586 h 10.7334 v 4.0498 h -10.7334 v 17.21875 q 0,3.87989 1.0479,4.98438 1.0762,1.10449 4.333,1.10449 h 5.3525 V 350 h -5.3525 q -6.0322,0 -8.3262,-2.2373 -2.2939,-2.26563 -2.2939,-8.2129 v -17.21875 h -3.8233 v -4.0498 h 3.8233 v -9.00586 z"
         id="path65" />
      <path
         d="m 1026.8438,318.28125 h 5.2109 V 350 h -5.2109 z m 0,-12.34766 h 5.2109 v 6.59864 h -5.2109 z"
         id="path67" />
      <path
         d="m 1055.249,321.93457 q -4.1914,0 -6.6269,3.28516 -2.4356,3.25683 -2.4356,8.94922 0,5.69238 2.4073,8.97753 2.4355,3.25684 6.6552,3.25684 4.1631,0 6.5987,-3.28516 2.4355,-3.28515 2.4355,-8.94921 0,-5.63575 -2.4355,-8.9209 -2.4356,-3.31348 -6.5987,-3.31348 z m 0,-4.41797 q 6.7969,0 10.6768,4.41797 3.8799,4.41797 3.8799,12.23438 0,7.78808 -3.8799,12.23437 -3.8799,4.41797 -10.6768,4.41797 -6.8252,0 -10.7051,-4.41797 -3.8515,-4.44629 -3.8515,-12.23437 0,-7.81641 3.8515,-12.23438 3.8799,-4.41797 10.7051,-4.41797 z"
         id="path69" />
      <path
         d="M 1104.8096,330.85547 V 350 h -5.211 v -18.97461 q 0,-4.50293 -1.7558,-6.74023 -1.7559,-2.23731 -5.2676,-2.23731 -4.2197,0 -6.6553,2.69043 -2.4355,2.69043 -2.4355,7.33496 V 350 h -5.2393 v -31.71875 h 5.2393 v 4.92773 q 1.8691,-2.86035 4.3896,-4.27636 2.5489,-1.41602 5.8623,-1.41602 5.4658,0 8.2696,3.39844 2.8037,3.37012 2.8037,9.94043 z"
         id="path71" />
      <path
         d="m 1131.0059,331.79004 h 15.2646 v 4.64453 h -15.2646 z"
         id="path73" />
      <path
         d="m 1171.1924,307.71777 h 6.1455 l 10.5068,15.71778 10.5635,-15.71778 h 6.1455 L 1190.96,328.02344 1205.46,350 h -6.1455 L 1187.4199,332.0166 1175.4404,350 h -6.1738 l 15.0947,-22.57129 z"
         id="path75" />
    </g>
    <g
       aria-label="for RetroPie"
       id="text22"
       style="font-size:58px;font-family:'DejaVu Sans';fill:#ffffff">
      <path
         d="m 621.52344,375.93359 v 4.33301 h -4.98438 q -2.80371,0 -3.9082,1.13281 -1.07617,1.13282 -1.07617,4.07813 v 2.80371 h 8.58105 v 4.0498 h -8.58105 V 420 h -5.23926 v -27.66895 h -4.98438 v -4.0498 h 4.98438 v -2.20898 q 0,-5.2959 2.46387,-7.70313 2.46386,-2.43555 7.8164,-2.43555 z"
         id="path78" />
      <path
         d="m 638.17578,391.93457 q -4.19141,0 -6.62695,3.28516 -2.43555,3.25683 -2.43555,8.94922 0,5.69238 2.40723,8.97753 2.43554,3.25684 6.65527,3.25684 4.16309,0 6.59863,-3.28516 2.43555,-3.28515 2.43555,-8.94921 0,-5.63575 -2.43555,-8.9209 -2.43554,-3.31348 -6.59863,-3.31348 z m 0,-4.41797 q 6.79688,0 10.67676,4.41797 3.87988,4.41797 3.87988,12.23438 0,7.78808 -3.87988,12.23437 -3.87988,4.41797 -10.67676,4.41797 -6.82519,0 -10.70508,-4.41797 -3.85156,-4.44629 -3.85156,-12.23437 0,-7.81641 3.85156,-12.23438 3.87989,-4.41797 10.70508,-4.41797 z"
         id="path80" />
      <path
         d="m 679.75,393.15234 q -0.87793,-0.50976 -1.92578,-0.73632 -1.01953,-0.25489 -2.26563,-0.25489 -4.41797,0 -6.79687,2.88867 -2.35059,2.86036 -2.35059,8.24122 V 420 h -5.23926 v -31.71875 h 5.23926 v 4.92773 q 1.64258,-2.88867 4.27637,-4.27636 2.63379,-1.41602 6.40039,-1.41602 0.53809,0 1.18945,0.085 0.65137,0.0566 1.44434,0.19824 z"
         id="path82" />
      <path
         d="m 723.92969,400.17578 q 1.84082,0.62305 3.56836,2.66211 1.75586,2.03906 3.51172,5.60742 L 736.81543,420 h -6.14551 l -5.40918,-10.84668 q -2.0957,-4.24805 -4.07812,-5.63574 -1.9541,-1.3877 -5.35254,-1.3877 h -6.23047 V 420 h -5.7207 v -42.28223 h 12.91406 q 7.25,0 10.81836,3.03028 3.56836,3.03027 3.56836,9.14746 0,3.99316 -1.86914,6.62695 -1.84082,2.63379 -5.38086,3.65332 z m -14.33008,-17.75683 v 15.00976 h 7.19336 q 4.13476,0 6.23047,-1.89746 2.12402,-1.92578 2.12402,-5.63574 0,-3.70996 -2.12402,-5.5791 -2.09571,-1.89746 -6.23047,-1.89746 z"
         id="path84" />
      <path
         d="m 768.47754,402.83789 v 2.54883 h -23.95899 q 0.33985,5.38086 3.22852,8.21289 2.91699,2.80371 8.09961,2.80371 3.00195,0 5.80566,-0.73633 2.83203,-0.73633 5.60743,-2.20898 v 4.92773 q -2.80372,1.18946 -5.74903,1.8125 -2.94531,0.62305 -5.97558,0.62305 -7.58985,0 -12.03614,-4.41797 -4.41797,-4.41797 -4.41797,-11.95117 0,-7.78809 4.19141,-12.34766 4.21973,-4.58789 11.35645,-4.58789 6.40039,0 10.11035,4.13477 3.73828,4.10644 3.73828,11.18652 z m -5.21094,-1.5293 q -0.0566,-4.27636 -2.40723,-6.82519 -2.32226,-2.54883 -6.17382,-2.54883 -4.36133,0 -6.99512,2.46387 -2.60547,2.46386 -3.00195,6.93847 z"
         id="path86" />
      <path
         d="m 782.18457,379.27539 v 9.00586 h 10.7334 v 4.0498 h -10.7334 v 17.21875 q 0,3.87989 1.04785,4.98438 1.07617,1.10449 4.33301,1.10449 h 5.35254 V 420 h -5.35254 q -6.03223,0 -8.32617,-2.2373 -2.29395,-2.26563 -2.29395,-8.2129 v -17.21875 h -3.82324 v -4.0498 h 3.82324 v -9.00586 z"
         id="path88" />
      <path
         d="m 818.15137,393.15234 q -0.87793,-0.50976 -1.92578,-0.73632 -1.01954,-0.25489 -2.26563,-0.25489 -4.41797,0 -6.79687,2.88867 -2.35059,2.86036 -2.35059,8.24122 V 420 h -5.23926 v -31.71875 h 5.23926 v 4.92773 q 1.64258,-2.88867 4.27637,-4.27636 2.63379,-1.41602 6.40039,-1.41602 0.53808,0 1.18945,0.085 0.65137,0.0566 1.44434,0.19824 z"
         id="path90" />
      <path
         d="m 834.63379,391.93457 q -4.19141,0 -6.62695,3.28516 -2.43555,3.25683 -2.43555,8.94922 0,5.69238 2.40723,8.97753 2.43554,3.25684 6.65527,3.25684 4.16308,0 6.59863,-3.28516 2.43555,-3.28515 2.43555,-8.94921 0,-5.63575 -2.43555,-8.9209 -2.43555,-3.31348 -6.59863,-3.31348 z m 0,-4.41797 q 6.79687,0 10.67676,4.41797 3.87988,4.41797 3.87988,12.23438 0,7.78808 -3.87988,12.23437 -3.87989,4.41797 -10.67676,4.41797 -6.8252,0 -10.70508,-4.41797 -3.85156,-4.44629 -3.85156,-12.23437 0,-7.81641 3.85156,-12.23438 3.87988,-4.41797 10.70508,-4.41797 z"
         id="path92" />
      <path
         d="m 863.77539,382.41895 v 15.88769 h 7.19336 q 3.99316,0 6.17383,-2.06738 2.18066,-2.06739 2.18066,-5.89063 0,-3.79492 -2.18066,-5.8623 -2.18067,-2.06738 -6.17383,-2.06738 z m -5.7207,-4.70118 h 12.91406 q 7.1084,0 10.7334,3.22852 3.65332,3.20019 3.65332,9.40234 0,6.25879 -3.65332,9.45899 -3.625,3.20019 -10.7334,3.20019 h -7.19336 V 420 h -5.7207 z"
         id="path94" />
      <path
         d="m 891.5293,388.28125 h 5.21093 V 420 h -5.21093 z m 0,-12.34766 h 5.21093 v 6.59864 h -5.21093 z"
         id="path96" />
      <path
         d="m 934.77441,402.83789 v 2.54883 h -23.95898 q 0.33984,5.38086 3.22852,8.21289 2.91699,2.80371 8.0996,2.80371 3.00196,0 5.80567,-0.73633 2.83203,-0.73633 5.60742,-2.20898 v 4.92773 q -2.80371,1.18946 -5.74902,1.8125 -2.94532,0.62305 -5.97559,0.62305 -7.58984,0 -12.03613,-4.41797 -4.41797,-4.41797 -4.41797,-11.95117 0,-7.78809 4.19141,-12.34766 4.21972,-4.58789 11.35644,-4.58789 6.40039,0 10.11035,4.13477 3.73828,4.10644 3.73828,11.18652 z m -5.21093,-1.5293 q -0.0566,-4.27636 -2.40723,-6.82519 -2.32227,-2.54883 -6.17383,-2.54883 -4.36133,0 -6.99512,2.46387 -2.60546,2.46386 -3.00195,6.93847 z"
         id="path98" />
    </g>
  </g>
</svg>
