<?xml version="1.0" encoding="UTF-8" standalone="no"?>
<!-- Generator: Adobe Illustrator 13.0.0, SVG Export Plug-In . SVG Version: 6.00 Build 14948)  -->

<svg
   version="1.1"
   x="0px"
   y="0px"
   width="1280"
   height="720"
   viewBox="0 0 1280 720"
   enable-background="new 0 0 1280 720"
   xml:space="preserve"
   id="svg1381"
   sodipodi:docname="splash1.svg"
   inkscape:export-filename="splash.svg"
   inkscape:export-xdpi="96"
   inkscape:export-ydpi="96"
   xmlns:inkscape="http://www.inkscape.org/namespaces/inkscape"
   xmlns:sodipodi="http://sodipodi.sourceforge.net/DTD/sodipodi-0.dtd"
   xmlns="http://www.w3.org/2000/svg"
   xmlns:svg="http://www.w3.org/2000/svg"><defs
   id="defs1385" /><sodipodi:namedview
   id="namedview1383"
   pagecolor="#ffffff"
   bordercolor="#000000"
   borderopacity="0.25"
   inkscape:showpageshadow="2"
   inkscape:pageopacity="0.0"
   inkscape:pagecheckerboard="true"
   inkscape:deskcolor="#d1d1d1"
   showgrid="false" />

<g
   id="Ebene_1"
   transform="translate(11.25037,56.566606)">
	<path
   fill="#c90012"
   d="M 431.529,442.097 Z"
   id="path1304" />
	<path
   fill="#c90012"
   d="M 431.529,359.216 Z"
   id="path1306" />
	<path
   fill="#c90012"
   d="M 431.529,276.306 Z"
   id="path1308" />
	<path
   fill="#c90012"
   d="M 431.529,317.753 Z"
   id="path1310" />
	<path
   fill="#c90012"
   d="M 431.529,483.544 Z"
   id="path1312" />
	<path
   fill="#c90012"
   d="M 431.529,400.642 Z"
   id="path1314" />
	<path
   fill="#c90012"
   d="M 431.529,234.842 Z"
   id="path1316" />
	<linearGradient
   id="SVGID_1_"
   gradientUnits="userSpaceOnUse"
   x1="118.3125"
   y1="542.32233"
   x2="323.80179"
   y2="227.33839">
		<stop
   offset="0"
   style="stop-color:#004E73"
   id="stop1318" />
		<stop
   offset="1"
   style="stop-color:#00A1B0"
   id="stop1320" />
	</linearGradient>
	<path
   fill="url(#SVGID_1_)"
   d="m 431.529,245.951 c 0,-6.11 -4.999,-11.108 -11.105,-11.108 H 69.563 c -6.112,0 -14.644,3.534 -18.963,7.855 L 24.855,268.443 C 20.533,272.764 17,281.296 17,287.406 v 226.468 c 0,6.111 4.999,11.109 11.106,11.109 h 350.86 c 6.107,0 14.644,-3.535 18.963,-7.854 l 25.741,-25.736 c 4.32,-4.316 7.854,-12.853 7.854,-18.965 z"
   id="path1323"
   style="fill:url(#SVGID_1_)" />
	<path
   opacity="0.2"
   enable-background="new    "
   d="M 382.22,392.789 356.491,367.06 c -4.319,-4.318 -12.854,-7.854 -18.963,-7.853 H 318.28 c -6.112,0.001 -11.11,0.001 -11.11,0.001 0,0 3.532,-3.534 7.854,-7.855 L 382.22,284.16 c 4.32,-4.321 2.854,-7.855 -3.253,-7.855 H 276.832 c -6.111,0 -14.643,3.534 -18.963,7.855 L 25.142,516.86 c -1.825,1.821 -3.517,3.514 -4.871,4.866 2.012,2.011 4.786,3.259 7.836,3.259 0.005,0 0.01,0 0.016,0 h 99.953 167.988 c 6.111,0 11.122,-0.013 11.133,-0.023 0.015,-0.016 3.559,-3.562 7.88,-7.88 l 67.144,-67.132 c 4.32,-4.316 7.854,-12.853 7.854,-18.963 v -19.235 c -0.002,-6.112 -3.535,-14.648 -7.855,-18.963 z"
   id="path1325" />
	<linearGradient
   id="SVGID_2_"
   gradientUnits="userSpaceOnUse"
   x1="144.813"
   y1="540.37299"
   x2="399.80029"
   y2="288.38571">
		<stop
   offset="0.3077"
   style="stop-color:#D3D3D3"
   id="stop1327" />
		<stop
   offset="0.6752"
   style="stop-color:#FFFFFF"
   id="stop1329" />
	</linearGradient>
	<path
   fill="url(#SVGID_2_)"
   d="m 276.824,400.649 c -6.108,0 -14.643,-3.536 -18.96,-7.857 l -25.71,-25.718 c -4.321,-4.321 -7.857,-12.855 -7.865,-18.966 l -0.012,-19.246 c -0.008,-6.11 3.525,-14.643 7.846,-18.964 l 25.741,-25.737 c 4.321,-4.321 12.852,-7.855 18.963,-7.855 h 102.14 c 6.107,0 7.573,3.534 3.253,7.855 l -25.741,25.737 c -4.32,4.321 -12.852,7.855 -18.963,7.855 h -60.688 c -6.112,0 -11.11,4.998 -11.11,11.108 v 19.246 c 0,6.11 4.998,11.108 11.106,11.106 l 60.702,-0.007 c 6.107,-0.002 14.644,3.533 18.963,7.853 l 25.729,25.729 c 4.32,4.314 7.854,12.851 7.854,18.963 v 19.235 c 0,6.109 -3.532,14.646 -7.854,18.963 l -25.74,25.74 c -4.321,4.316 -12.853,7.854 -18.964,7.854 h -60.688 c -6.112,0 -14.643,-3.536 -18.963,-7.854 l -25.741,-25.74 c -4.32,-4.316 -2.858,-7.854 3.253,-7.854 h 102.14 c 6.112,0 11.11,-4.998 11.11,-11.108 V 411.75 c 0,-6.112 0,-11.11 0.003,-11.11 0.004,0 -4.994,0 -11.103,0 z"
   id="path1332"
   style="fill:url(#SVGID_2_)" />
	<g
   opacity="0.2"
   id="g1336">
		<path
   d="m 17.008,370.877 c 0,-6.109 0,-11.238 0,-11.393 0,-0.155 3.532,-3.818 7.854,-8.138 L 92.047,284.16 c 4.321,-4.321 12.855,-7.855 18.963,-7.855 h 102.15 c 6.108,0 7.574,3.534 3.253,7.855 l -67.197,67.182 c -4.32,4.321 -7.853,7.855 -7.853,7.855 0,0 4.998,0.002 11.11,0.006 l 19.228,0.007 c 6.108,0.004 10.75,4.993 10.318,11.086 l -1.114,15.593 c -0.433,6.092 -1.707,11.997 -2.833,13.122 -1.125,1.125 -5.576,5.58 -9.896,9.896 l -25.201,25.201 c -4.32,4.315 -7.885,7.885 -7.922,7.918 -0.034,0.034 4.933,0.064 11.041,0.062 h 17.979 c 6.108,-0.004 14.784,3.379 19.281,7.519 l 26.836,24.694 c 4.497,4.137 8.181,7.623 8.058,7.75 -0.126,0.126 -3.766,3.762 -8.087,8.083 l -34.827,34.85 -147.212,0.002 c -6.107,0 -11.105,-4.998 -11.105,-11.11 z"
   id="path1334" />
	</g>
	<linearGradient
   id="SVGID_3_"
   gradientUnits="userSpaceOnUse"
   x1="71.269997"
   y1="465.9541"
   x2="326.25729"
   y2="213.9668">
		<stop
   offset="0.3077"
   style="stop-color:#D3D3D3"
   id="stop1338" />
		<stop
   offset="0.6752"
   style="stop-color:#FFFFFF"
   id="stop1340" />
	</linearGradient>
	<path
   fill="url(#SVGID_3_)"
   d="m 111.01,442.097 c -6.107,0 -11.104,-4.998 -11.104,-11.108 v -19.235 c 0,-6.112 4.998,-11.11 11.104,-11.11 h 60.69 c 6.108,0 11.106,-4.998 11.106,-11.108 V 370.33 c 0,-6.112 -4.998,-11.11 -11.106,-11.11 h -60.69 c -6.107,0 -11.104,-4.998 -11.104,-11.108 v -19.246 c 0,-6.11 4.998,-11.108 11.104,-11.108 h 60.69 c 6.108,0 14.643,-3.534 18.964,-7.854 l 25.749,-25.741 c 4.321,-4.319 2.855,-7.853 -3.253,-7.853 H 111.01 c -6.107,0 -14.643,3.534 -18.963,7.855 L 66.31,309.9 c -4.32,4.321 -7.857,12.854 -7.857,18.964 v 102.125 c 0,6.11 3.537,14.646 7.857,18.963 l 25.737,25.74 c 4.321,4.316 12.855,7.854 18.963,7.854 h 102.143 c 6.112,0 7.574,-3.536 3.253,-7.855 l -25.741,-25.744 c -4.32,-4.321 -12.854,-7.857 -18.964,-7.857 z"
   id="path1343"
   style="fill:url(#SVGID_3_)" />
	<g
   id="g1377">
		<path
   fill="#ffffff"
   d="m 558.605,326.562 c -1.623,3.8 -3.851,7.115 -6.683,9.943 -2.832,2.836 -6.146,5.06 -9.947,6.682 -3.796,1.623 -7.838,2.434 -12.116,2.434 h -8.496 c -4.283,0 -8.324,-0.812 -12.121,-2.434 -3.8,-1.623 -7.115,-3.846 -9.942,-6.682 -2.836,-2.828 -5.063,-6.143 -6.683,-9.943 -1.626,-3.796 -2.435,-7.838 -2.435,-12.121 v -47.858 c 0,-4.282 0.809,-8.324 2.435,-12.12 1.619,-3.801 3.847,-7.115 6.683,-9.947 2.827,-2.833 6.144,-5.056 9.942,-6.682 3.796,-1.619 7.838,-2.434 12.121,-2.434 h 8.496 c 4.278,0 8.319,0.815 12.116,2.434 3.8,1.626 7.115,3.85 9.947,6.682 2.832,2.832 5.06,6.146 6.683,9.947 1.623,3.796 2.434,7.838 2.434,12.12 v 24.964 h -58.114 v 23.618 c 0,2.556 0.481,4.956 1.45,7.202 0.965,2.243 2.277,4.195 3.936,5.852 1.66,1.657 3.608,2.97 5.854,3.938 2.243,0.964 4.643,1.447 7.199,1.447 h 8.495 c 2.554,0 4.953,-0.482 7.199,-1.447 2.243,-0.968 4.195,-2.281 5.853,-3.938 1.657,-1.657 2.971,-3.609 3.938,-5.852 0.964,-2.246 1.451,-4.646 1.451,-7.202 v -7.042 l 12.739,2.07 v 4.248 c -10e-4,4.283 -0.81,8.324 -2.434,12.121 z m -10.306,-60.707 c 0,-2.553 -0.486,-4.952 -1.451,-7.199 -0.968,-2.243 -2.28,-4.194 -3.938,-5.852 -1.656,-1.658 -3.608,-2.97 -5.852,-3.938 -2.248,-0.964 -4.646,-1.45 -7.199,-1.45 h -8.496 c -2.557,0 -4.956,0.486 -7.199,1.45 -2.246,0.969 -4.194,2.281 -5.855,3.938 -1.656,1.657 -2.97,3.609 -3.934,5.852 -0.969,2.247 -1.451,4.646 -1.451,7.199 V 281.6 h 45.375 z"
   id="path1345" />
		<path
   fill="#ffffff"
   d="m 698.506,343.55 v -77.695 c 0,-2.553 -0.482,-4.952 -1.45,-7.199 -0.969,-2.243 -2.276,-4.194 -3.938,-5.853 -1.652,-1.657 -3.608,-2.97 -5.853,-3.938 -2.246,-0.964 -4.646,-1.45 -7.198,-1.45 h -6.317 c -2.558,0 -4.956,0.486 -7.202,1.45 -2.243,0.969 -4.21,2.281 -5.901,3.938 -1.695,1.657 -3.023,3.609 -3.991,5.853 -0.966,2.247 -1.445,4.646 -1.445,7.199 v 77.695 h -12.644 v -77.695 c 0,-2.553 -0.481,-4.952 -1.449,-7.199 -0.969,-2.243 -2.296,-4.194 -3.987,-5.853 -1.69,-1.657 -3.658,-2.97 -5.905,-3.938 -2.242,-0.964 -4.643,-1.45 -7.199,-1.45 h -6.317 c -2.558,0 -4.956,0.486 -7.198,1.45 -2.247,0.969 -4.195,2.281 -5.854,3.938 -1.657,1.657 -2.97,3.609 -3.936,5.853 -0.968,2.247 -1.45,4.646 -1.45,7.199 v 77.695 h -12.74 V 237.474 h 4.244 l 6.942,10.773 c 2.899,-3.938 6.54,-7.061 10.931,-9.376 4.382,-2.312 9.166,-3.471 14.344,-3.471 h 1.037 c 6.009,0 11.428,1.485 16.266,4.455 4.833,2.97 8.563,6.908 11.188,11.811 1.312,-2.419 2.936,-4.627 4.868,-6.629 1.934,-2.005 4.075,-3.712 6.423,-5.128 2.35,-1.416 4.905,-2.522 7.668,-3.318 2.761,-0.792 5.627,-1.19 8.597,-1.19 h 1.037 c 4.278,0 8.319,0.815 12.12,2.434 3.797,1.626 7.114,3.85 9.946,6.682 2.828,2.832 5.057,6.146 6.684,9.947 1.618,3.796 2.435,7.838 2.435,12.12 v 76.968 h -12.747 v -0.002 z"
   id="path1347" />
		<path
   fill="#ffffff"
   d="m 803.343,343.55 -7.046,-10.773 c -2.9,3.938 -6.525,7.061 -10.878,9.376 -4.348,2.312 -9.115,3.467 -14.294,3.467 h -3.211 c -4.286,0 -8.323,-0.812 -12.12,-2.434 -3.801,-1.623 -7.114,-3.846 -9.946,-6.682 -2.832,-2.828 -5.061,-6.143 -6.684,-9.943 -1.622,-3.796 -2.434,-7.838 -2.434,-12.121 v -76.966 h 12.743 v 77.691 c 0,2.556 0.481,4.956 1.446,7.202 0.969,2.243 2.28,4.195 3.938,5.852 1.657,1.657 3.609,2.97 5.853,3.938 2.242,0.964 4.646,1.447 7.203,1.447 h 8.496 c 2.549,0 4.952,-0.482 7.193,-1.447 2.243,-0.968 4.198,-2.281 5.854,-3.938 1.657,-1.657 2.971,-3.609 3.936,-5.852 0.969,-2.246 1.454,-4.646 1.454,-7.202 v -77.691 h 12.736 V 343.55 Z"
   id="path1349" />
		<path
   fill="#ffffff"
   d="M 837.319,343.55 V 195 h 12.739 v 148.55 z"
   id="path1351" />
		<path
   fill="#ffffff"
   d="m 946.404,343.55 -7.047,-10.567 c -2.899,3.8 -6.524,6.854 -10.881,9.17 -4.348,2.312 -9.115,3.467 -14.289,3.467 h -3.216 c -4.282,0 -8.319,-0.812 -12.116,-2.434 -3.805,-1.623 -7.118,-3.846 -9.946,-6.682 -2.836,-2.828 -5.063,-6.143 -6.683,-9.943 -1.627,-3.796 -2.436,-7.838 -2.436,-12.121 v -1.037 c 0,-4.279 0.809,-8.32 2.436,-12.121 1.618,-3.796 3.847,-7.111 6.683,-9.943 2.828,-2.832 6.144,-5.06 9.946,-6.682 3.797,-1.623 7.834,-2.434 12.116,-2.434 h 26.937 v -16.368 c 0,-2.553 -0.481,-4.952 -1.45,-7.199 -0.969,-2.243 -2.276,-4.194 -3.938,-5.852 -1.652,-1.657 -3.608,-2.97 -5.853,-3.938 -2.246,-0.964 -4.646,-1.45 -7.198,-1.45 h -7.459 c -2.558,0 -4.956,0.486 -7.197,1.45 -2.248,0.969 -4.195,2.281 -5.856,3.938 -1.652,1.657 -2.97,3.609 -3.935,5.852 -0.969,2.247 -1.45,4.646 -1.45,7.199 v 3.835 l -12.74,-2.075 v -1.033 c 0,-4.282 0.812,-8.324 2.436,-12.12 1.622,-3.801 3.851,-7.115 6.683,-9.947 2.828,-2.833 6.146,-5.056 9.942,-6.682 3.796,-1.619 7.839,-2.434 12.12,-2.434 h 7.459 c 4.278,0 8.319,0.815 12.117,2.434 3.8,1.626 7.113,3.85 9.949,6.682 2.828,2.832 5.057,6.146 6.68,9.947 1.622,3.796 2.434,7.838 2.434,12.12 v 76.968 z m -8.497,-51.383 H 910.97 c -2.558,0 -4.956,0.486 -7.199,1.451 -2.245,0.968 -4.193,2.296 -5.852,3.988 -1.661,1.695 -2.971,3.663 -3.938,5.905 -0.97,2.247 -1.451,4.646 -1.451,7.203 v 4.451 c 0,2.556 0.481,4.956 1.451,7.202 0.968,2.243 2.275,4.195 3.938,5.852 1.656,1.657 3.604,2.97 5.852,3.938 2.243,0.964 4.644,1.447 7.199,1.447 h 8.496 c 2.553,0 4.952,-0.482 7.198,-1.447 2.242,-0.968 4.198,-2.281 5.853,-3.938 1.661,-1.657 2.971,-3.609 3.938,-5.852 0.969,-2.246 1.45,-4.646 1.45,-7.202 z"
   id="path1353" />
		<path
   fill="#ffffff"
   d="m 1014.771,343.55 c -3.864,0 -7.509,-0.724 -10.931,-2.174 -3.418,-1.451 -6.389,-3.456 -8.909,-6.009 -2.52,-2.557 -4.523,-5.526 -6.009,-8.91 -1.485,-3.383 -2.225,-7.007 -2.225,-10.876 V 249.59 h -19.063 v -12.116 h 19.063 v -25.485 l 12.739,-2.07 v 27.555 h 26.937 v 12.116 h -26.937 v 66.611 c 0,2.143 0.398,4.129 1.194,5.955 0.788,1.833 1.879,3.437 3.261,4.818 1.383,1.381 3.004,2.472 4.868,3.264 1.866,0.792 3.864,1.189 6.009,1.189 h 11.604 v 12.121 z"
   id="path1355" />
		<path
   fill="#ffffff"
   d="M 1052.996,211.989 V 195 h 14.814 v 16.989 z m 1.037,131.561 V 237.474 h 12.74 V 343.55 Z"
   id="path1357" />
		<path
   fill="#ffffff"
   d="m 1164.93,326.562 c -1.623,3.8 -3.852,7.115 -6.679,9.943 -2.837,2.836 -6.149,5.06 -9.95,6.682 -3.797,1.623 -7.838,2.434 -12.116,2.434 h -8.496 c -4.282,0 -8.319,-0.812 -12.116,-2.434 -3.805,-1.623 -7.119,-3.846 -9.946,-6.682 -2.837,-2.828 -5.062,-6.143 -6.683,-9.943 -1.627,-3.796 -2.436,-7.838 -2.436,-12.121 v -47.858 c 0,-4.282 0.809,-8.324 2.436,-12.12 1.619,-3.801 3.846,-7.115 6.683,-9.947 2.827,-2.833 6.144,-5.056 9.946,-6.682 3.797,-1.619 7.834,-2.434 12.116,-2.434 h 8.496 c 4.278,0 8.319,0.815 12.116,2.434 3.801,1.626 7.114,3.85 9.95,6.682 2.827,2.832 5.056,6.146 6.679,9.947 1.622,3.796 2.435,7.838 2.435,12.12 v 47.858 c 0,4.283 -0.813,8.324 -2.435,12.121 z m -10.308,-60.707 c 0,-2.553 -0.481,-4.952 -1.449,-7.199 -0.97,-2.243 -2.276,-4.194 -3.938,-5.852 -1.653,-1.657 -3.608,-2.97 -5.853,-3.938 -2.246,-0.964 -4.646,-1.45 -7.199,-1.45 h -8.496 c -2.557,0 -4.955,0.486 -7.197,1.45 -2.247,0.969 -4.194,2.281 -5.853,3.938 -1.661,1.657 -2.971,3.609 -3.938,5.852 -0.97,2.247 -1.45,4.646 -1.45,7.199 v 49.309 c 0,2.556 0.48,4.956 1.45,7.202 0.968,2.243 2.276,4.195 3.938,5.852 1.656,1.657 3.604,2.97 5.853,3.938 2.242,0.964 4.643,1.447 7.197,1.447 h 8.496 c 2.554,0 4.953,-0.482 7.199,-1.447 2.243,-0.968 4.197,-2.281 5.853,-3.938 1.661,-1.657 2.97,-3.609 3.938,-5.852 0.968,-2.246 1.449,-4.646 1.449,-7.202 z"
   id="path1359" />
		<path
   fill="#ffffff"
   d="m 1250.964,343.55 v -77.695 c 0,-2.553 -0.485,-4.952 -1.451,-7.199 -0.969,-2.243 -2.28,-4.194 -3.935,-5.853 -1.661,-1.657 -3.612,-2.97 -5.855,-3.938 -2.242,-0.964 -4.646,-1.45 -7.197,-1.45 h -8.492 c -2.558,0 -4.96,0.486 -7.203,1.45 -2.241,0.969 -4.193,2.281 -5.854,3.938 -1.652,1.657 -2.97,3.609 -3.935,5.853 -0.969,2.247 -1.45,4.646 -1.45,7.199 v 77.695 h -12.74 V 237.474 h 4.248 l 6.938,10.773 c 2.9,-3.938 6.541,-7.061 10.931,-9.376 4.382,-2.312 9.166,-3.471 14.349,-3.471 h 3.211 c 4.281,0 8.319,0.815 12.12,2.434 3.797,1.626 7.11,3.85 9.942,6.682 2.832,2.832 5.061,6.146 6.683,9.947 1.623,3.796 2.436,7.838 2.436,12.12 v 76.968 z"
   id="path1361" />
		<path
   fill="#ffffff"
   d="m 563.109,496.258 c 0,4.278 -0.865,8.198 -2.588,11.757 -1.729,3.562 -4.075,6.613 -7.045,9.17 -2.971,2.559 -6.406,4.539 -10.308,5.955 -3.903,1.416 -7.995,2.12 -12.276,2.12 H 522.4 c -4.283,0 -8.377,-0.812 -12.277,-2.434 -3.903,-1.623 -7.32,-3.843 -10.257,-6.684 -2.937,-2.823 -5.28,-6.14 -7.042,-9.942 -1.76,-3.797 -2.641,-7.838 -2.641,-12.116 v -4.248 l 12.739,-2.074 v 7.042 c 0,2.558 0.531,4.961 1.604,7.202 1.07,2.243 2.503,4.194 4.301,5.854 1.795,1.653 3.866,2.971 6.217,3.936 2.346,0.965 4.799,1.447 7.354,1.447 h 8.491 c 2.558,0 5.006,-0.376 7.355,-1.135 2.347,-0.766 4.438,-1.853 6.27,-3.269 1.829,-1.416 3.28,-3.123 4.352,-5.129 1.068,-1.997 1.604,-4.277 1.604,-6.835 0,-3.797 -0.826,-6.903 -2.487,-9.323 -1.657,-2.419 -3.851,-4.438 -6.575,-6.062 -2.729,-1.623 -5.836,-2.964 -9.322,-4.034 -3.49,-1.071 -7.064,-2.145 -10.725,-3.215 -3.663,-1.071 -7.236,-2.296 -10.725,-3.674 -3.485,-1.388 -6.594,-3.2 -9.322,-5.442 -2.729,-2.242 -4.918,-5.06 -6.575,-8.442 -1.661,-3.384 -2.487,-7.593 -2.487,-12.638 0,-4.278 0.826,-8.196 2.487,-11.757 1.657,-3.561 3.899,-6.613 6.731,-9.17 2.832,-2.557 6.127,-4.539 9.894,-5.955 3.763,-1.416 7.785,-2.128 12.067,-2.128 h 7.459 c 4.282,0 8.323,0.819 12.12,2.435 3.796,1.631 7.115,3.852 9.947,6.683 2.827,2.834 5.056,6.146 6.683,9.951 1.618,3.797 2.434,7.838 2.434,12.116 v 0.413 l -12.744,2.074 v -3.215 c 0,-2.55 -0.48,-4.953 -1.45,-7.195 -0.97,-2.241 -2.276,-4.193 -3.935,-5.854 -1.657,-1.653 -3.608,-2.972 -5.854,-3.937 -2.243,-0.964 -4.644,-1.453 -7.198,-1.453 h -7.459 c -2.554,0 -4.957,0.384 -7.199,1.142 -2.243,0.766 -4.195,1.853 -5.853,3.261 -1.657,1.424 -2.971,3.13 -3.938,5.128 -0.97,2.006 -1.451,4.287 -1.451,6.844 0,3.658 0.831,6.646 2.488,8.955 1.657,2.319 3.85,4.271 6.579,5.855 2.725,1.592 5.833,2.916 9.322,3.985 3.486,1.072 7.042,2.175 10.67,3.314 3.625,1.141 7.181,2.436 10.67,3.889 3.486,1.446 6.595,3.314 9.323,5.588 2.729,2.28 4.922,5.129 6.579,8.552 1.658,3.423 2.485,7.648 2.485,12.692 z"
   id="path1363" />
		<path
   fill="#ffffff"
   d="m 626.196,523.194 c -3.865,0 -7.509,-0.729 -10.927,-2.175 -3.421,-1.455 -6.392,-3.461 -8.909,-6.01 -2.521,-2.557 -4.522,-5.524 -6.009,-8.908 -1.484,-3.385 -2.229,-7.013 -2.229,-10.877 v -65.996 h -19.059 v -12.116 h 19.059 v -25.479 l 12.74,-2.072 v 27.555 H 637.8 v 12.117 h -26.937 v 66.613 c 0,2.145 0.397,4.126 1.193,5.955 0.792,1.829 1.879,3.438 3.262,4.813 1.381,1.386 3.004,2.473 4.867,3.27 1.868,0.788 3.869,1.188 6.008,1.188 h 11.604 v 12.123 z"
   id="path1365" />
		<path
   fill="#ffffff"
   d="m 727.821,523.194 -7.042,-10.57 c -2.899,3.804 -6.527,6.856 -10.876,9.169 -4.353,2.313 -9.116,3.468 -14.3,3.468 h -3.207 c -4.285,0 -8.327,-0.812 -12.123,-2.434 -3.802,-1.623 -7.114,-3.844 -9.943,-6.685 -2.836,-2.823 -5.063,-6.139 -6.682,-9.941 -1.627,-3.796 -2.436,-7.839 -2.436,-12.116 v -1.041 c 0,-4.277 0.809,-8.32 2.436,-12.116 1.617,-3.797 3.846,-7.109 6.682,-9.941 2.829,-2.832 6.144,-5.062 9.943,-6.684 3.796,-1.622 7.838,-2.435 12.123,-2.435 h 26.933 v -16.372 c 0,-2.549 -0.485,-4.953 -1.449,-7.195 -0.97,-2.241 -2.28,-4.193 -3.936,-5.854 -1.661,-1.653 -3.612,-2.972 -5.854,-3.937 -2.242,-0.964 -4.646,-1.453 -7.199,-1.453 h -7.459 c -2.557,0 -4.955,0.489 -7.201,1.453 -2.243,0.965 -4.194,2.281 -5.853,3.937 -1.657,1.66 -2.971,3.612 -3.936,5.854 -0.97,2.242 -1.45,4.646 -1.45,7.195 v 3.834 l -12.744,-2.074 v -1.032 c 0,-4.278 0.813,-8.319 2.436,-12.116 1.623,-3.806 3.85,-7.117 6.683,-9.95 2.832,-2.832 6.146,-5.052 9.946,-6.684 3.796,-1.614 7.838,-2.435 12.119,-2.435 h 7.459 c 4.283,0 8.32,0.818 12.121,2.435 3.797,1.632 7.109,3.852 9.941,6.684 2.832,2.833 5.061,6.146 6.684,9.95 1.623,3.797 2.435,7.838 2.435,12.116 v 76.972 z m -8.493,-51.384 h -26.932 c -2.562,0 -4.961,0.482 -7.202,1.447 -2.247,0.974 -4.193,2.296 -5.854,3.988 -1.657,1.699 -2.971,3.666 -3.936,5.908 -0.969,2.241 -1.45,4.646 -1.45,7.202 v 4.446 c 0,2.559 0.481,4.96 1.45,7.202 0.965,2.243 2.276,4.194 3.936,5.855 1.661,1.651 3.607,2.97 5.854,3.935 2.241,0.965 4.643,1.447 7.202,1.447 h 8.491 c 2.554,0 4.957,-0.482 7.199,-1.447 2.241,-0.965 4.193,-2.28 5.854,-3.935 1.652,-1.661 2.966,-3.612 3.936,-5.855 0.964,-2.242 1.449,-4.646 1.449,-7.202 z"
   id="path1367" />
		<path
   fill="#ffffff"
   d="m 796.193,523.194 c -3.869,0 -7.514,-0.729 -10.928,-2.175 -3.421,-1.455 -6.392,-3.461 -8.908,-6.01 -2.526,-2.557 -4.523,-5.524 -6.01,-8.908 -1.484,-3.385 -2.229,-7.013 -2.229,-10.877 v -65.996 h -19.059 v -12.116 h 19.059 v -25.479 l 12.741,-2.072 v 27.555 h 26.932 v 12.117 H 780.86 v 66.613 c 0,2.145 0.395,4.126 1.188,5.955 0.796,1.829 1.883,3.438 3.266,4.813 1.382,1.386 3.005,2.473 4.867,3.27 1.864,0.788 3.869,1.188 6.01,1.188 h 11.6 v 12.123 z"
   id="path1369" />
		<path
   fill="#ffffff"
   d="m 834.419,391.632 v -16.987 h 14.813 v 16.987 z m 1.036,131.562 V 417.113 h 12.74 v 106.081 z"
   id="path1371" />
		<path
   fill="#ffffff"
   d="m 946.352,506.201 c -1.623,3.805 -3.851,7.118 -6.683,9.941 -2.832,2.841 -6.146,5.062 -9.942,6.685 -3.802,1.622 -7.839,2.434 -12.121,2.434 h -8.492 c -4.286,0 -8.327,-0.812 -12.124,-2.434 -3.796,-1.623 -7.109,-3.844 -9.941,-6.685 -2.832,-2.823 -5.061,-6.139 -6.684,-9.941 -1.623,-3.796 -2.436,-7.839 -2.436,-12.116 v -47.861 c 0,-4.278 0.813,-8.319 2.436,-12.116 1.623,-3.806 3.852,-7.117 6.684,-9.95 2.831,-2.832 6.146,-5.052 9.941,-6.684 3.797,-1.614 7.838,-2.435 12.124,-2.435 h 8.492 c 4.282,0 8.319,0.819 12.121,2.435 3.797,1.632 7.11,3.852 9.942,6.684 2.831,2.833 5.06,6.146 6.683,9.95 1.622,3.797 2.434,7.838 2.434,12.116 v 47.861 c -0.003,4.278 -0.812,8.32 -2.434,12.116 z m -10.308,-60.705 c 0,-2.549 -0.485,-4.953 -1.45,-7.195 -0.968,-2.241 -2.281,-4.193 -3.936,-5.854 -1.661,-1.653 -3.611,-2.972 -5.854,-3.937 -2.241,-0.964 -4.646,-1.453 -7.198,-1.453 h -8.492 c -2.558,0 -4.96,0.489 -7.202,1.453 -2.242,0.965 -4.193,2.281 -5.854,3.937 -1.652,1.66 -2.97,3.612 -3.936,5.854 -0.968,2.242 -1.449,4.646 -1.449,7.195 v 49.31 c 0,2.558 0.481,4.959 1.449,7.201 0.966,2.243 2.281,4.194 3.936,5.855 1.661,1.651 3.612,2.97 5.854,3.935 2.242,0.966 4.646,1.447 7.202,1.447 h 8.492 c 2.554,0 4.957,-0.481 7.198,-1.447 2.243,-0.965 4.193,-2.28 5.854,-3.935 1.652,-1.661 2.968,-3.612 3.936,-5.855 0.965,-2.242 1.45,-4.646 1.45,-7.201 z"
   id="path1373" />
		<path
   fill="#ffffff"
   d="m 1032.385,523.194 v -77.698 c 0,-2.549 -0.481,-4.953 -1.449,-7.195 -0.97,-2.241 -2.277,-4.193 -3.938,-5.854 -1.652,-1.653 -3.608,-2.972 -5.853,-3.937 -2.246,-0.964 -4.646,-1.453 -7.198,-1.453 h -8.496 c -2.558,0 -4.956,0.489 -7.198,1.453 -2.246,0.965 -4.193,2.281 -5.853,3.937 -1.661,1.66 -2.97,3.612 -3.938,5.854 -0.97,2.242 -1.451,4.646 -1.451,7.195 v 77.698 H 974.272 V 417.113 h 4.243 l 6.942,10.775 c 2.9,-3.939 6.545,-7.063 10.931,-9.375 4.387,-2.312 9.17,-3.477 14.345,-3.477 h 3.215 c 4.278,0 8.32,0.818 12.117,2.436 3.8,1.629 7.114,3.851 9.95,6.683 2.827,2.833 5.056,6.146 6.679,9.951 1.622,3.795 2.435,7.838 2.435,12.114 v 76.974 z"
   id="path1375" />
	</g>
</g>

<text
   xml:space="preserve"
   style="font-size:184.339px;font-family:'Andale Mono';-inkscape-font-specification:'Andale Mono';text-align:center;text-anchor:middle;opacity:0.501061;fill:#ffffff;stroke:#000000;stroke-width:0.236183;stroke-linejoin:round;paint-order:fill markers stroke"
   x="973.49432"
   y="697.55579"
   id="text2282"
   transform="scale(1.2004179,0.83304322)"><tspan
     sodipodi:role="line"
     id="tspan2280"
     x="973.49432"
     y="697.55579"
     style="font-style:normal;font-variant:normal;font-weight:normal;font-stretch:normal;font-size:184.339px;font-family:'Noto Sans Egyptian Hieroglyphs';-inkscape-font-specification:'Noto Sans Egyptian Hieroglyphs';stroke-width:0.236183">-X</tspan></text></svg>
